# xmcd CD database file
#
# Track frame offsets:
#	150
#	17850
#	39075
#	56775
#	89077
#
# Disc length: 4440 seconds
#
# Revision: 0
# Processed by: cddbd v1.5PL3 Copyright (c) Steve Scherf et al.
# Submitted via: CDex 1.50beta8
#
DISCID=3b115605
DTITLE=AKINA - Touch me (single)
DYEAR=2002
DGENRE=JPop
TTITLE0=Touch me
TTITLE1=Any time
TTITLE2=Touch me (Instrumental)
TTITLE3=Any time (Instrumental)
TTITLE4=data
EXTD=YEAR: 2002
EXTT0=
EXTT1=
EXTT2=
EXTT3=
EXTT4=
PLAYORDER=
